<svg xmlns="http://www.w3.org/2000/svg" viewBox="0 0 1440 520" fill="none" stroke="#0D1B3D" stroke-width="1.5" stroke-linecap="round">
  <g stroke-opacity="0.5">
    <path d="M-20 70 C 240 20 480 120 720 74 S 1200 20 1460 84" />
    <path d="M-20 132 C 240 82 480 182 720 136 S 1200 82 1460 146" />
    <path d="M-20 194 C 240 144 480 244 720 198 S 1200 144 1460 208" />
  </g>
  <g stroke-opacity="0.32">
    <path d="M-20 262 C 260 210 500 306 740 262 S 1210 214 1460 274" />
    <path d="M-20 330 C 260 280 500 372 740 330 S 1210 284 1460 342" />
    <path d="M-20 398 C 260 350 500 440 740 398 S 1210 352 1460 410" />
    <path d="M-20 466 C 260 420 500 506 740 466 S 1210 420 1460 478" />
  </g>
</svg>
